<svg width="1920" height="479" viewBox="0 0 1920 479" fill="none" xmlns="http://www.w3.org/2000/svg">
<g clip-path="url(#clip0_307_175)">
<path d="M877.358 409.757C846.554 415.363 812.608 414.089 783.164 402.793C759.467 393.704 739.365 378.558 719.773 362.731C700.465 347.131 680.816 332.098 656.949 324.17C626.316 314.006 591.266 312.846 560.009 320.83C534.67 327.313 512.955 340.591 492.627 356.701C488.409 360.042 484.218 363.439 480 366.808V366.893C475.98 370.092 471.931 373.292 467.854 376.406C446.762 392.43 423.659 404.973 397.358 409.757C366.554 415.363 332.608 414.089 303.164 402.793C279.439 393.704 259.365 378.558 239.774 362.731C220.465 347.131 200.816 332.098 176.949 324.17C146.316 314.006 111.294 312.846 80.0094 320.83C54.6703 327.313 32.9551 340.591 12.6271 356.701C8.40864 360.042 4.21847 363.439 0 366.808L0 381.474C12.9952 371.281 25.509 360.466 39.2686 351.321C87.4555 319.272 155.064 314.205 206.79 341.384C228.76 352.935 247.248 369.101 266.726 384.248C287.337 400.273 309.789 412.843 335.666 417.854C367.12 423.942 401.774 422.554 431.785 410.663C449.593 403.585 465.08 393.025 480.028 381.474C493.023 371.31 505.537 360.495 519.297 351.35C567.484 319.301 635.093 314.233 686.818 341.412C708.789 352.964 727.276 369.13 746.755 384.277C767.366 400.301 789.817 412.872 815.694 417.883C847.149 423.97 881.803 422.583 911.813 410.692C929.621 403.614 945.108 393.053 960.057 381.502V366.95C956.036 370.149 951.988 373.348 947.911 376.462C926.818 392.487 903.716 405.029 877.414 409.814L877.358 409.757Z" fill="#3E668C" fill-opacity="0.4"/>
<path d="M839.618 460.156C815.921 451.068 795.819 435.921 776.227 420.094C756.919 404.495 737.27 389.461 713.403 381.534C682.77 371.37 647.72 370.209 616.463 378.193C591.124 384.676 569.409 397.955 549.081 414.064C529.942 429.211 511.37 445.519 489.032 455.852C486.059 457.24 483.029 458.485 480 459.675V459.561C471.62 462.902 462.928 465.478 453.84 467.121C423.036 472.726 389.09 471.452 359.646 460.156C335.949 451.068 315.848 435.921 296.256 420.094C276.947 404.495 257.299 389.461 233.432 381.534C202.798 371.37 167.776 370.209 136.492 378.193C111.153 384.676 89.4373 397.955 69.1094 414.064C49.9705 429.211 31.3979 445.519 9.05982 455.852C6.08707 457.24 3.05769 458.485 0.0283203 459.675L0.0283203 470.66C13.3632 466.384 26.1036 460.326 38.0795 452.342C58.2093 438.95 75.6777 422.048 95.7792 408.656C143.966 376.607 211.575 371.54 263.301 398.719C285.271 410.27 303.758 426.436 323.237 441.583C343.848 457.608 366.299 470.178 392.177 475.189C420.772 480.739 452.056 480.087 480.057 470.971V470.66C493.392 466.384 506.132 460.326 518.08 452.342C538.209 438.95 555.678 422.048 575.779 408.656C623.966 376.607 691.575 371.54 743.301 398.719C765.271 410.27 783.758 426.436 803.237 441.583C823.848 457.608 846.299 470.178 872.176 475.189C900.771 480.739 932.056 480.087 960.057 470.971V459.561C951.676 462.902 942.984 465.478 933.896 467.121C903.093 472.726 869.147 471.452 839.703 460.156H839.618Z" fill="#3E668C" fill-opacity="0.4"/>
<path d="M811.391 431.476C787.665 422.388 767.592 407.241 748.001 391.415C728.692 375.815 709.043 360.781 685.176 352.854C654.543 342.69 619.521 341.529 588.236 349.513C562.897 355.997 541.182 369.275 520.854 385.384C507.463 395.973 494.354 407.156 480 416.442V416.301C463.324 426.861 445.375 434.845 425.585 438.441C394.781 444.047 360.835 442.773 331.391 431.476C307.694 422.388 287.592 407.241 268 391.415C248.692 375.815 229.043 360.781 205.176 352.854C174.543 342.69 139.521 341.529 108.236 349.513C82.8973 355.997 61.182 369.275 40.8541 385.384C27.4625 395.973 14.3258 407.156 0 416.442L0 429.664C3.31249 427.796 6.59667 425.814 9.79592 423.662C29.9257 410.271 47.3941 393.368 67.4956 379.977C115.682 347.928 183.291 342.86 235.017 370.039C256.987 381.591 275.475 397.757 294.953 412.904C315.564 428.928 338.016 441.499 363.893 446.51C395.347 452.597 430.001 451.21 460.012 439.319C467.005 436.544 473.63 433.231 480.028 429.523V429.664C483.341 427.796 486.625 425.814 489.824 423.662C509.954 410.271 527.422 393.368 547.524 379.977C595.711 347.928 663.32 342.86 715.045 370.039C737.015 381.591 755.503 397.757 774.982 412.904C795.593 428.928 818.044 441.499 843.921 446.51C875.376 452.597 910.029 451.21 940.04 439.319C947.033 436.544 953.658 433.231 960.057 429.523V416.301C943.409 426.861 925.431 434.845 905.641 438.441C874.838 444.047 840.892 442.773 811.447 431.476H811.391Z" fill="#3E668C" fill-opacity="0.4"/>
<path d="M892.872 57.0501C844.516 23.8969 776.397 18.8574 724.332 46.8862C702.786 58.4657 684.837 74.9433 665.5 89.6371C644.407 105.662 621.305 118.204 595.003 122.989C564.2 128.594 530.254 127.32 500.809 116.024C493.561 113.249 486.653 109.88 480 106.143V106.256C476.829 104.529 473.715 102.661 470.629 100.679C450.272 87.5704 432.804 70.6965 412.872 57.0501C364.516 23.8969 296.397 18.8574 244.332 46.8862C222.786 58.4657 204.837 74.9433 185.5 89.6371C164.407 105.662 141.305 118.204 115.003 122.989C84.1996 128.594 50.2536 127.32 20.8092 116.024C13.5614 113.249 6.6533 109.908 0 106.143L0 108.634C16.2793 119.223 33.8044 127.292 53.3113 131.057C84.7658 137.145 119.42 135.757 149.43 123.866C172.759 114.608 192.125 99.3198 211.49 83.7199C231.082 67.9502 251.495 53.0298 275.701 45.3007C305.74 35.703 340.111 34.5988 370.744 42.0731C396.48 48.3301 418.875 61.58 439.627 77.7178C452.99 88.1083 465.901 99.4331 480 108.833V108.634C496.279 119.223 513.804 127.292 533.311 131.057C564.766 137.145 599.42 135.757 629.43 123.866C652.759 114.608 672.125 99.3198 691.49 83.7199C711.082 67.9502 731.495 53.0298 755.701 45.3007C785.74 35.703 820.111 34.5988 850.744 42.0731C876.48 48.3301 898.875 61.58 919.627 77.7178C932.99 88.1083 945.872 99.4331 960 108.833V106.256C956.829 104.529 953.715 102.661 950.629 100.679C930.273 87.5704 912.804 70.6965 892.872 57.0501Z" fill="#3E668C" fill-opacity="0.4"/>
<path d="M864.646 28.3691C816.289 -4.75586 748.17 -9.82369 696.105 18.2051C674.559 29.7847 656.61 46.2622 637.273 60.9561C616.18 76.9806 593.078 89.5228 566.776 94.3075C538.521 99.4602 507.632 98.8091 480 89.9474V89.636C466.863 85.5025 454.293 79.6702 442.402 72.026C422.046 58.9176 404.577 42.0437 384.646 28.3974C336.289 -4.72755 268.17 -9.79538 216.105 18.2334C194.559 29.813 176.61 46.2905 157.273 60.9844C136.18 77.0089 113.078 89.5511 86.776 94.3358C58.5207 99.4885 27.6324 98.8374 0 89.9758L0 94.902C8.01227 98.1579 16.336 100.706 25.056 102.405C56.5106 108.492 91.1643 107.104 121.175 95.2135C144.504 85.9555 163.869 70.667 183.235 55.0672C202.826 39.2975 223.239 24.3771 247.446 16.6479C277.485 7.07851 311.856 5.94603 342.489 13.4204C368.225 19.6773 390.619 32.9273 411.372 49.0651C430.341 63.8156 448.347 80.4063 470.232 90.7968C473.432 92.3256 476.688 93.7129 479.972 95.0153V94.902C487.984 98.1579 496.308 100.706 505.028 102.405C536.482 108.492 571.136 107.104 601.147 95.2135C624.476 85.9555 643.841 70.667 663.206 55.0672C682.798 39.2975 703.211 24.3771 727.418 16.6479C757.457 7.07851 791.827 5.94603 822.461 13.4204C848.196 19.6773 870.591 32.9273 891.344 49.0651C910.313 63.8156 928.319 80.4063 950.204 90.7968C953.403 92.3256 956.659 93.7129 959.943 95.0153V89.6643C946.807 85.5308 934.236 79.6985 922.345 72.0543C901.989 58.9459 884.521 42.072 864.589 28.4257L864.646 28.3691Z" fill="#3E668C" fill-opacity="0.4"/>
<path d="M752.559 75.5658C731.013 87.1454 713.064 103.623 693.727 118.317C672.634 134.341 649.532 146.884 623.23 151.668C592.427 157.274 558.481 156 529.036 144.704C511.058 137.795 495.175 127.433 480 115.939V115.825C467.061 105.775 454.661 95.0161 441.128 85.7298C392.771 52.5766 324.653 47.5371 272.587 75.5658C251.042 87.1454 233.092 103.623 213.755 118.317C192.663 134.341 169.56 146.884 143.258 151.668C112.455 157.274 78.5089 156 49.0645 144.704C31.0582 137.795 15.1752 127.433 0 115.939L0 116.165C4.19016 119.506 8.38032 122.847 12.5988 126.131C33.2099 142.155 55.6612 154.726 81.5383 159.737C112.993 165.824 147.647 164.437 177.657 152.546C200.986 143.288 220.352 127.999 239.717 112.4C259.309 96.6299 279.722 81.7095 303.928 73.9804C333.967 64.4109 368.338 63.2785 398.971 70.7528C424.707 77.0097 447.102 90.2597 467.826 106.398C471.903 109.568 475.923 112.824 479.972 116.08V116.165C484.162 119.506 488.352 122.847 492.57 126.131C513.182 142.155 535.633 154.726 561.51 159.737C592.965 165.824 627.618 164.437 657.629 152.546C680.958 143.288 700.323 127.999 719.689 112.4C739.252 96.6299 759.665 81.7095 783.9 73.9804C813.939 64.4109 848.31 63.2785 878.943 70.7528C904.679 77.0097 927.073 90.2597 947.826 106.398C951.903 109.568 955.923 112.824 959.972 116.08V115.825C947.033 105.775 934.633 95.0161 921.099 85.7298C872.743 52.5766 804.624 47.5371 752.559 75.5658Z" fill="#3E668C" fill-opacity="0.4"/>
<path d="M780.814 104.246C759.269 115.826 741.319 132.303 721.982 146.997C700.889 163.022 677.787 175.564 651.485 180.349C620.682 185.954 586.736 184.68 557.292 173.384C533.566 164.296 513.493 149.149 493.901 133.322C489.315 129.614 484.7 125.961 480.028 122.394V122.139C476.546 119.478 473.007 116.902 469.383 114.41C421.026 81.2852 352.908 76.2173 300.842 104.246C279.297 115.826 261.347 132.303 242.01 146.997C220.918 163.022 197.815 175.564 171.514 180.349C140.71 185.954 106.764 184.68 77.3198 173.384C53.6227 164.296 33.5213 149.149 13.9295 133.322C9.2863 129.614 4.67146 125.933 0 122.394L0 123.527C14.156 133.181 27.2644 144.223 40.8258 154.783C61.4368 170.807 83.8882 183.378 109.765 188.389C141.22 194.476 175.874 193.089 205.884 181.198C229.213 171.94 248.579 156.651 267.944 141.052C287.536 125.282 307.949 110.361 332.155 102.632C362.194 93.0629 396.565 91.9304 427.198 99.4048C446.422 104.076 463.777 112.655 479.972 123.413V123.498C494.128 133.153 507.236 144.194 520.797 154.755C541.409 170.779 563.86 183.35 589.737 188.361C621.191 194.448 655.845 193.061 685.856 181.17C709.185 171.912 728.55 156.623 747.916 141.023C767.507 125.254 787.92 110.333 812.127 102.604C842.166 93.0346 876.537 91.9021 907.17 99.3765C926.394 104.048 943.749 112.626 959.943 123.385V122.083C956.461 119.421 952.922 116.845 949.298 114.353C900.941 81.2285 832.823 76.1607 780.757 104.189L780.814 104.246Z" fill="#3E668C" fill-opacity="0.4"/>
<path d="M849.131 381.078C818.327 386.683 784.381 385.409 754.937 374.113C731.211 365.025 711.138 349.878 691.547 334.051C672.238 318.452 652.589 303.418 628.722 295.491C598.089 285.327 563.039 284.166 531.782 292.15C512.814 296.991 495.883 305.655 480.028 316.47C466.099 326.237 453.217 337.392 439.627 347.726C418.535 363.751 395.432 376.293 369.131 381.078C338.327 386.683 304.381 385.409 274.937 374.113C251.24 365.025 231.138 349.878 211.547 334.051C192.238 318.452 172.589 303.418 148.722 295.491C118.089 285.327 83.0671 284.166 51.7825 292.15C32.7852 297.02 15.8547 305.683 0 316.498L0 330.484C3.59561 327.795 7.27616 325.162 11.0416 322.67C59.2285 290.621 126.837 285.553 178.563 312.733C200.533 324.284 219.021 340.45 238.499 355.597C259.111 371.621 281.562 384.192 307.439 389.203C338.893 395.29 373.547 393.903 403.558 382.012C426.887 372.754 446.252 357.437 465.618 341.866C470.346 338.043 475.13 334.278 480.028 330.654V330.512C483.624 327.823 487.304 325.19 491.07 322.698C539.257 290.649 606.866 285.582 658.591 312.761C680.562 324.312 699.049 340.478 718.528 355.625C739.139 371.65 761.59 384.22 787.467 389.231C818.922 395.318 853.576 393.931 883.586 382.04C906.915 372.782 926.281 357.465 945.646 341.894C950.374 338.072 955.159 334.306 960.057 330.682V316.555C946.127 326.322 933.245 337.477 919.656 347.811C898.563 363.836 875.461 376.378 849.159 381.163L849.131 381.078Z" fill="#3E668C" fill-opacity="0.4"/>
<path d="M863.145 290.37C842.053 306.394 818.95 318.936 792.648 323.721C761.845 329.327 727.899 328.053 698.455 316.756C674.758 307.668 654.656 292.521 635.064 276.695C615.756 261.095 596.107 246.062 572.24 238.134C543.136 228.48 510.067 226.951 480 233.661V233.463C466.778 236.464 453.953 241.164 441.977 247.59C420.432 259.17 402.482 275.648 383.145 290.341C362.053 306.366 338.95 318.908 312.648 323.693C281.845 329.299 247.899 328.025 218.455 316.728C194.758 307.64 174.656 292.493 155.064 276.667C135.756 261.067 116.107 246.033 92.2402 238.106C63.1356 228.508 30.0672 226.951 0 233.689L0 244.476C40.2312 232.981 85.1905 235.954 122.081 255.32C144.051 266.871 162.539 283.037 182.017 298.184C202.628 314.208 225.08 326.779 250.957 331.79C282.411 337.877 317.065 336.49 347.076 324.599C370.405 315.341 389.77 300.052 409.135 284.453C428.727 268.683 449.14 253.762 473.347 246.033C475.555 245.325 477.763 244.674 480 244.08V244.476C520.231 232.981 565.191 235.954 602.081 255.32C624.051 266.871 642.539 283.037 662.017 298.184C682.628 314.208 705.08 326.779 730.957 331.79C762.411 337.877 797.065 336.49 827.076 324.599C850.405 315.341 869.77 300.052 889.135 284.453C908.727 268.683 929.14 253.762 953.347 246.033C955.555 245.325 957.763 244.674 960 244.08V233.491C946.778 236.492 933.953 241.192 921.977 247.619C900.432 259.198 882.482 275.676 863.145 290.37Z" fill="#3E668C" fill-opacity="0.4"/>
<path d="M809.041 132.925C787.496 144.504 769.546 160.982 750.209 175.676C729.116 191.7 706.014 204.242 679.712 209.027C648.909 214.633 614.963 213.359 585.518 202.062C561.821 192.974 541.72 177.827 522.128 162.001C508.68 151.158 495.09 140.569 480.028 132.472V132.698C433.653 109.228 375.104 108.152 329.069 132.925C307.524 144.504 289.574 160.982 270.237 175.676C249.145 191.7 226.042 204.242 199.74 209.027C168.937 214.633 134.991 213.359 105.547 202.062C81.8497 192.974 61.7483 177.827 42.1564 162.001C28.6516 151.158 15.0619 140.569 0 132.472L0 136.237C3.086 137.596 6.14368 139.068 9.14474 140.626C31.1148 152.177 49.6025 168.343 69.081 183.49C89.6921 199.514 112.143 212.085 138.021 217.096C169.475 223.211 204.129 221.796 234.139 209.905C257.468 200.647 276.834 185.358 296.199 169.758C315.791 153.989 336.204 139.068 360.411 131.339C390.449 121.742 424.82 120.637 455.454 128.112C463.975 130.178 472.129 133.038 480 136.492V136.237C483.086 137.596 486.144 139.068 489.145 140.626C511.115 152.177 529.602 168.343 549.081 183.49C569.692 199.514 592.143 212.085 618.021 217.096C649.475 223.211 684.129 221.796 714.139 209.905C737.469 200.647 756.834 185.358 776.199 169.758C795.791 153.989 816.176 139.068 840.411 131.339C870.449 121.742 904.82 120.637 935.454 128.112C943.976 130.178 952.129 133.038 960 136.492V132.727C913.625 109.256 855.076 108.18 809.041 132.953V132.925Z" fill="#3E668C" fill-opacity="0.4"/>
<path d="M834.89 261.687C813.797 277.712 790.695 290.254 764.393 295.038C733.59 300.644 699.644 299.37 670.199 288.074C646.474 278.986 626.401 263.839 606.809 248.012C587.5 232.413 567.852 217.379 543.985 209.452C523.799 202.742 501.687 199.967 480 201.128V200.93C456.897 202.09 434.078 207.979 413.75 218.936C392.205 230.516 374.255 246.993 354.918 261.687C333.826 277.712 310.723 290.254 284.421 295.038C253.618 300.644 219.672 299.37 190.228 288.074C166.531 278.986 146.429 263.839 126.837 248.012C107.529 232.413 87.8801 217.379 64.0132 209.452C43.7985 202.77 21.6869 199.995 0 201.156L0 210.216C32.1623 206.535 65.4005 211.717 93.8256 226.665C115.796 238.216 134.283 254.383 153.762 269.529C174.373 285.554 196.824 298.124 222.701 303.136C254.156 309.223 288.81 307.835 318.82 295.944C342.149 286.686 361.515 271.398 380.88 255.798C400.472 240.028 420.885 225.108 445.091 217.379C456.275 213.812 468.024 211.433 479.972 210.216C512.134 206.535 545.372 211.717 573.797 226.665C595.767 238.216 614.255 254.383 633.734 269.529C654.345 285.554 676.796 298.124 702.673 303.136C734.128 309.223 768.781 307.835 798.792 295.944C822.121 286.686 841.486 271.398 860.852 255.798C880.415 240.028 900.828 225.108 925.063 217.379C936.218 213.812 947.996 211.433 959.943 210.216V200.958C936.841 202.119 914.021 208.008 893.694 218.964C872.148 230.544 854.198 247.021 834.861 261.715L834.89 261.687Z" fill="#3E668C" fill-opacity="0.4"/>
<path d="M891.372 319.047C870.28 335.072 847.177 347.614 820.875 352.399C790.072 358.005 756.126 356.731 726.682 345.434C702.956 336.346 682.883 321.199 663.291 305.373C643.983 289.773 624.334 274.739 600.467 266.812C569.834 256.648 534.784 255.487 503.527 263.471C495.345 265.566 487.531 268.369 480 271.767V271.483C476.688 272.956 473.403 274.569 470.204 276.268C448.659 287.848 430.709 304.325 411.372 319.019C390.28 335.044 367.177 347.586 340.875 352.371C310.072 357.976 276.126 356.702 246.682 345.406C222.956 336.318 202.883 321.171 183.263 305.344C163.954 289.745 144.306 274.711 120.439 266.784C89.8054 256.62 54.7835 255.459 23.4989 263.443C15.3167 265.566 7.50265 268.397 0 271.767L0 284.054C46.205 261.178 104.499 259.932 150.308 284.026C172.278 295.577 190.766 311.743 210.244 326.89C230.855 342.914 253.307 355.485 279.184 360.496C310.638 366.583 345.292 365.196 375.303 353.305C398.632 344.047 417.997 328.758 437.362 313.159C450.867 302.287 464.74 291.84 480 283.856V284.082C526.205 261.206 584.499 259.96 630.308 284.054C652.278 295.605 670.766 311.771 690.244 326.918C710.855 342.943 733.307 355.513 759.184 360.524C790.638 366.611 825.292 365.224 855.303 353.333C878.632 344.075 897.997 328.787 917.362 313.187C930.867 302.315 944.74 291.868 960 283.884V271.568C956.688 273.041 953.403 274.654 950.204 276.353C928.659 287.933 910.709 304.41 891.372 319.104V319.047Z" fill="#3E668C" fill-opacity="0.4"/>
<path d="M865.495 190.286C843.95 201.866 826 218.343 806.663 233.037C785.599 249.062 762.468 261.604 736.166 266.389C705.363 271.994 671.417 270.72 641.972 259.424C618.275 250.336 598.174 235.189 578.582 219.362C559.273 203.763 539.625 188.729 515.758 180.802C504.32 177.008 492.259 174.46 480 173.186C447.611 169.477 414.147 174.856 385.495 190.286C363.95 201.866 346 218.343 326.663 233.037C305.599 249.062 282.468 261.604 256.166 266.389C225.363 271.994 191.417 270.72 161.972 259.424C138.275 250.336 118.174 235.189 98.582 219.362C79.2733 203.763 59.6249 188.729 35.7579 180.802C24.3199 177.008 12.2591 174.46 0 173.186L0 180.603C22.9043 181.708 45.4689 187.398 65.5987 197.987C87.5687 209.538 106.056 225.704 125.535 240.851C146.146 256.876 168.597 269.446 194.474 274.457C225.929 280.573 260.583 279.157 290.593 267.266C313.922 258.008 333.288 242.72 352.653 227.12C372.245 211.35 392.658 196.43 416.864 188.701C436.796 182.359 458.596 179.726 480 180.858V180.603C502.904 181.708 525.441 187.398 545.599 197.987C567.569 209.538 586.056 225.704 605.535 240.851C626.146 256.876 648.597 269.446 674.474 274.457C705.929 280.573 740.583 279.157 770.593 267.266C793.922 258.008 813.288 242.72 832.653 227.12C852.245 211.35 872.658 196.43 896.865 188.701C916.796 182.359 938.596 179.726 960 180.858V173.242C927.611 169.477 894.147 174.884 865.495 190.286Z" fill="#3E668C" fill-opacity="0.4"/>
<path d="M837.268 161.606C815.723 173.186 797.773 189.663 778.436 204.357C757.343 220.382 734.241 232.924 707.939 237.709C677.136 243.315 643.19 242.041 613.745 230.744C590.02 221.656 569.947 206.509 550.355 190.683C531.046 175.083 511.398 160.049 487.531 152.122C485.04 151.301 482.548 150.536 480 149.829V150.253C439.571 138.476 394.357 141.647 357.268 161.606C335.723 173.186 317.773 189.663 298.436 204.357C277.343 220.382 254.241 232.924 227.939 237.709C197.136 243.315 163.19 242.041 133.745 230.744C110.02 221.656 89.9469 206.509 70.3551 190.683C51.0464 175.083 31.3979 160.049 7.53097 152.122C5.03952 151.301 2.54807 150.536 0 149.829L0 155.689C12.9952 158.605 25.594 163.107 37.3717 169.279C59.3418 180.83 77.8294 196.996 97.308 212.143C117.919 228.168 140.37 240.738 166.247 245.749C197.702 251.836 232.356 250.449 262.366 238.558C285.695 229.3 305.061 214.012 324.426 198.412C344.018 182.642 364.431 167.722 388.638 159.993C417.487 150.791 450.301 149.404 480 155.916V155.689C492.995 158.605 505.594 163.107 517.372 169.279C539.342 180.83 557.829 196.996 577.308 212.143C597.919 228.168 620.37 240.738 646.247 245.749C677.702 251.836 712.356 250.449 742.366 238.558C765.695 229.3 785.061 214.012 804.426 198.412C824.018 182.642 844.431 167.722 868.666 159.993C897.516 150.791 930.329 149.404 960.028 155.916V150.253C919.599 138.476 874.385 141.647 837.296 161.606H837.268Z" fill="#3E668C" fill-opacity="0.4"/>
<path d="M1837.36 409.757C1806.55 415.363 1772.61 414.089 1743.16 402.793C1719.47 393.704 1699.37 378.558 1679.77 362.731C1660.46 347.131 1640.82 332.098 1616.95 324.17C1586.32 314.006 1551.27 312.846 1520.01 320.83C1494.67 327.313 1472.96 340.591 1452.63 356.701C1448.41 360.042 1444.22 363.439 1440 366.808V366.893C1435.98 370.092 1431.93 373.292 1427.85 376.406C1406.76 392.43 1383.66 404.973 1357.36 409.757C1326.55 415.363 1292.61 414.089 1263.16 402.793C1239.44 393.704 1219.37 378.558 1199.77 362.731C1180.46 347.131 1160.82 332.098 1136.95 324.17C1106.32 314.006 1071.29 312.846 1040.01 320.83C1014.67 327.313 992.955 340.591 972.627 356.701C968.409 360.042 964.218 363.439 960 366.808V381.474C972.995 371.281 985.509 360.466 999.269 351.321C1047.46 319.272 1115.06 314.205 1166.79 341.384C1188.76 352.935 1207.25 369.101 1226.73 384.248C1247.34 400.273 1269.79 412.843 1295.67 417.854C1327.12 423.942 1361.77 422.554 1391.78 410.663C1409.59 403.585 1425.08 393.025 1440.03 381.474C1453.02 371.31 1465.54 360.495 1479.3 351.35C1527.48 319.301 1595.09 314.233 1646.82 341.412C1668.79 352.964 1687.28 369.13 1706.75 384.277C1727.37 400.301 1749.82 412.872 1775.69 417.883C1807.15 423.97 1841.8 422.583 1871.81 410.692C1889.62 403.614 1905.11 393.053 1920.06 381.502V366.95C1916.04 370.149 1911.99 373.348 1907.91 376.462C1886.82 392.487 1863.72 405.029 1837.41 409.814L1837.36 409.757Z" fill="#3E668C" fill-opacity="0.4"/>
<path d="M1799.62 460.156C1775.92 451.068 1755.82 435.921 1736.23 420.094C1716.92 404.495 1697.27 389.461 1673.4 381.534C1642.77 371.37 1607.72 370.209 1576.46 378.193C1551.12 384.676 1529.41 397.955 1509.08 414.064C1489.94 429.211 1471.37 445.519 1449.03 455.852C1446.06 457.24 1443.03 458.485 1440 459.675V459.561C1431.62 462.902 1422.93 465.478 1413.84 467.121C1383.04 472.726 1349.09 471.452 1319.65 460.156C1295.95 451.068 1275.85 435.921 1256.26 420.094C1236.95 404.495 1217.3 389.461 1193.43 381.534C1162.8 371.37 1127.78 370.209 1096.49 378.193C1071.15 384.676 1049.44 397.955 1029.11 414.064C1009.97 429.211 991.398 445.519 969.06 455.852C966.087 457.24 963.058 458.485 960.028 459.675V470.66C973.363 466.384 986.104 460.326 998.08 452.342C1018.21 438.95 1035.68 422.048 1055.78 408.656C1103.97 376.607 1171.57 371.54 1223.3 398.719C1245.27 410.27 1263.76 426.436 1283.24 441.583C1303.85 457.608 1326.3 470.178 1352.18 475.189C1380.77 480.739 1412.06 480.087 1440.06 470.971V470.66C1453.39 466.384 1466.13 460.326 1478.08 452.342C1498.21 438.95 1515.68 422.048 1535.78 408.656C1583.97 376.607 1651.57 371.54 1703.3 398.719C1725.27 410.27 1743.76 426.436 1763.24 441.583C1783.85 457.608 1806.3 470.178 1832.18 475.189C1860.77 480.739 1892.06 480.087 1920.06 470.971V459.561C1911.68 462.902 1902.98 465.478 1893.9 467.121C1863.09 472.726 1829.15 471.452 1799.7 460.156H1799.62Z" fill="#3E668C" fill-opacity="0.4"/>
<path d="M1771.39 431.476C1747.67 422.388 1727.59 407.241 1708 391.415C1688.69 375.815 1669.04 360.781 1645.18 352.854C1614.54 342.69 1579.52 341.529 1548.24 349.513C1522.9 355.997 1501.18 369.275 1480.85 385.384C1467.46 395.973 1454.35 407.156 1440 416.442V416.301C1423.32 426.861 1405.37 434.845 1385.58 438.441C1354.78 444.047 1320.84 442.773 1291.39 431.476C1267.69 422.388 1247.59 407.241 1228 391.415C1208.69 375.815 1189.04 360.781 1165.18 352.854C1134.54 342.69 1099.52 341.529 1068.24 349.513C1042.9 355.997 1021.18 369.275 1000.85 385.384C987.463 395.973 974.326 407.156 960 416.442V429.664C963.312 427.796 966.597 425.814 969.796 423.662C989.926 410.271 1007.39 393.368 1027.5 379.977C1075.68 347.928 1143.29 342.86 1195.02 370.039C1216.99 381.591 1235.47 397.757 1254.95 412.904C1275.56 428.928 1298.02 441.499 1323.89 446.51C1355.35 452.597 1390 451.21 1420.01 439.319C1427 436.544 1433.63 433.231 1440.03 429.523V429.664C1443.34 427.796 1446.63 425.814 1449.82 423.662C1469.95 410.271 1487.42 393.368 1507.52 379.977C1555.71 347.928 1623.32 342.86 1675.05 370.039C1697.02 381.591 1715.5 397.757 1734.98 412.904C1755.59 428.928 1778.04 441.499 1803.92 446.51C1835.38 452.597 1870.03 451.21 1900.04 439.319C1907.03 436.544 1913.66 433.231 1920.06 429.523V416.301C1903.41 426.861 1885.43 434.845 1865.64 438.441C1834.84 444.047 1800.89 442.773 1771.45 431.476H1771.39Z" fill="#3E668C" fill-opacity="0.4"/>
<path d="M1852.87 57.0501C1804.52 23.8969 1736.4 18.8574 1684.33 46.8862C1662.79 58.4657 1644.84 74.9433 1625.5 89.6371C1604.41 105.662 1581.3 118.204 1555 122.989C1524.2 128.594 1490.25 127.32 1460.81 116.024C1453.56 113.249 1446.65 109.88 1440 106.143V106.256C1436.83 104.529 1433.71 102.661 1430.63 100.679C1410.27 87.5704 1392.8 70.6965 1372.87 57.0501C1324.52 23.8969 1256.4 18.8574 1204.33 46.8862C1182.79 58.4657 1164.84 74.9433 1145.5 89.6371C1124.41 105.662 1101.3 118.204 1075 122.989C1044.2 128.594 1010.25 127.32 980.809 116.024C973.561 113.249 966.653 109.88 960 106.143V108.634C976.279 119.223 993.804 127.292 1013.31 131.057C1044.77 137.145 1079.42 135.757 1109.43 123.866C1132.76 114.608 1152.12 99.3198 1171.49 83.7199C1191.08 67.9502 1211.49 53.0298 1235.7 45.3007C1265.74 35.703 1300.11 34.5988 1330.74 42.0731C1356.48 48.3301 1378.87 61.58 1399.63 77.7178C1412.99 88.1083 1425.9 99.4331 1440 108.833V108.634C1456.28 119.223 1473.8 127.292 1493.31 131.057C1524.77 137.145 1559.42 135.757 1589.43 123.866C1612.76 114.608 1632.12 99.3198 1651.49 83.7199C1671.08 67.9502 1691.49 53.0298 1715.7 45.3007C1745.74 35.703 1780.11 34.5988 1810.74 42.0731C1836.48 48.3301 1858.87 61.58 1879.63 77.7178C1892.99 88.1083 1905.87 99.4331 1920 108.833V106.256C1916.83 104.529 1913.71 102.661 1910.63 100.679C1890.27 87.5704 1872.8 70.6965 1852.87 57.0501Z" fill="#3E668C" fill-opacity="0.4"/>
<path d="M1824.65 28.3691C1776.29 -4.75586 1708.17 -9.82369 1656.1 18.2051C1634.56 29.7847 1616.61 46.2622 1597.27 60.9561C1576.18 76.9806 1553.08 89.5228 1526.78 94.3075C1498.52 99.4602 1467.63 98.8091 1440 89.9474V89.636C1426.86 85.5025 1414.29 79.6702 1402.4 72.026C1382.05 58.9176 1364.58 42.0437 1344.65 28.3974C1296.29 -4.72755 1228.17 -9.79538 1176.1 18.2334C1154.56 29.813 1136.61 46.2905 1117.27 60.9844C1096.18 77.0089 1073.08 89.5511 1046.78 94.3358C1018.52 99.4885 987.632 98.8374 960 89.9758V94.902C968.012 98.1579 976.336 100.706 985.056 102.405C1016.51 108.492 1051.16 107.104 1081.17 95.2135C1104.5 85.9555 1123.87 70.667 1143.23 55.0672C1162.83 39.2975 1183.24 24.3771 1207.45 16.6479C1237.49 7.07851 1271.86 5.94603 1302.49 13.4204C1328.22 19.6773 1350.62 32.9273 1371.37 49.0651C1390.34 63.8156 1408.35 80.4063 1430.23 90.7968C1433.43 92.3256 1436.69 93.7129 1439.97 95.0153V94.902C1447.98 98.1579 1456.31 100.706 1465.03 102.405C1496.48 108.492 1531.14 107.104 1561.15 95.2135C1584.48 85.9555 1603.84 70.667 1623.21 55.0672C1642.8 39.2975 1663.21 24.3771 1687.42 16.6479C1717.46 7.07851 1751.83 5.94603 1782.46 13.4204C1808.2 19.6773 1830.59 32.9273 1851.34 49.0651C1870.31 63.8156 1888.32 80.4063 1910.2 90.7968C1913.4 92.3256 1916.66 93.7129 1919.94 95.0153V89.6643C1906.81 85.5308 1894.24 79.6985 1882.35 72.0543C1861.99 58.9459 1844.52 42.072 1824.59 28.4257L1824.65 28.3691Z" fill="#3E668C" fill-opacity="0.4"/>
<path d="M1712.56 75.5658C1691.01 87.1454 1673.06 103.623 1653.73 118.317C1632.63 134.341 1609.53 146.884 1583.23 151.668C1552.43 157.274 1518.48 156 1489.04 144.704C1471.06 137.795 1455.18 127.433 1440 115.939V115.825C1427.06 105.775 1414.66 95.0161 1401.13 85.7298C1352.77 52.5766 1284.65 47.5371 1232.59 75.5658C1211.04 87.1454 1193.09 103.623 1173.75 118.317C1152.66 134.341 1129.56 146.884 1103.26 151.668C1072.45 157.274 1038.51 156 1009.06 144.704C991.087 137.795 975.204 127.433 960.028 115.939V116.165C964.218 119.506 968.409 122.847 972.627 126.131C993.238 142.155 1015.69 154.726 1041.57 159.737C1073.02 165.824 1107.67 164.437 1137.69 152.546C1161.01 143.288 1180.38 127.999 1199.75 112.4C1219.34 96.6299 1239.75 81.7095 1263.96 73.9804C1294 64.4109 1328.37 63.2785 1359 70.7528C1384.74 77.0097 1407.13 90.2597 1427.85 106.398C1431.93 109.568 1435.95 112.824 1440 116.08V116.165C1444.19 119.506 1448.38 122.847 1452.6 126.131C1473.21 142.155 1495.66 154.726 1521.54 159.737C1552.99 165.824 1587.65 164.437 1617.66 152.546C1640.99 143.288 1660.35 127.999 1679.72 112.4C1699.28 96.6299 1719.69 81.7095 1743.93 73.9804C1773.97 64.4109 1808.34 63.2785 1838.97 70.7528C1864.71 77.0097 1887.1 90.2597 1907.85 106.398C1911.93 109.568 1915.95 112.824 1920 116.08V115.825C1907.06 105.775 1894.66 95.0161 1881.13 85.7298C1832.77 52.5766 1764.65 47.5371 1712.59 75.5658H1712.56Z" fill="#3E668C" fill-opacity="0.4"/>
<path d="M1740.81 104.246C1719.27 115.826 1701.32 132.303 1681.98 146.997C1660.89 163.022 1637.79 175.564 1611.49 180.349C1580.68 185.954 1546.74 184.68 1517.29 173.384C1493.57 164.296 1473.49 149.149 1453.9 133.322C1449.31 129.614 1444.7 125.961 1440.03 122.394V122.139C1436.55 119.478 1433.01 116.902 1429.38 114.41C1381.03 81.2852 1312.91 76.2173 1260.84 104.246C1239.3 115.826 1221.35 132.303 1202.01 146.997C1180.92 163.022 1157.82 175.564 1131.51 180.349C1100.71 185.954 1066.76 184.68 1037.32 173.384C1013.62 164.296 993.521 149.149 973.929 133.322C969.343 129.614 964.728 125.961 960.057 122.394V123.527C974.213 133.181 987.321 144.223 1000.88 154.783C1021.49 170.807 1043.94 183.378 1069.82 188.389C1101.28 194.476 1135.93 193.089 1165.94 181.198C1189.27 171.94 1208.64 156.651 1228 141.052C1247.59 125.282 1268.01 110.361 1292.21 102.632C1322.25 93.0629 1356.62 91.9304 1387.25 99.4048C1406.48 104.076 1423.83 112.655 1440.03 123.413V123.498C1454.18 133.153 1467.29 144.194 1480.85 154.755C1501.47 170.779 1523.92 183.35 1549.79 188.361C1581.25 194.448 1615.9 193.061 1645.91 181.17C1669.24 171.912 1688.61 156.623 1707.97 141.023C1727.56 125.254 1747.98 110.333 1772.18 102.604C1802.22 93.0346 1836.59 91.9021 1867.23 99.3765C1886.45 104.048 1903.81 112.626 1920 123.385V122.083C1916.52 119.421 1912.98 116.845 1909.35 114.353C1861 81.2285 1792.88 76.1607 1740.81 104.189V104.246Z" fill="#3E668C" fill-opacity="0.4"/>
<path d="M1809.13 381.078C1778.33 386.683 1744.38 385.409 1714.94 374.113C1691.21 365.025 1671.14 349.878 1651.55 334.051C1632.24 318.452 1612.59 303.418 1588.72 295.491C1558.09 285.327 1523.04 284.166 1491.78 292.15C1472.81 296.991 1455.88 305.655 1440.03 316.47C1426.1 326.237 1413.22 337.392 1399.63 347.726C1378.53 363.751 1355.43 376.293 1329.13 381.078C1298.33 386.683 1264.38 385.409 1234.94 374.113C1211.24 365.025 1191.14 349.878 1171.55 334.051C1152.24 318.452 1132.59 303.418 1108.72 295.491C1078.09 285.327 1043.07 284.166 1011.78 292.15C992.814 296.991 975.883 305.655 960.028 316.47V330.456C963.624 327.766 967.304 325.133 971.07 322.642C1019.26 290.593 1086.87 285.525 1138.59 312.704C1160.56 324.256 1179.05 340.422 1198.53 355.569C1219.14 371.593 1241.59 384.164 1267.47 389.175C1298.92 395.262 1333.58 393.875 1363.59 381.984C1386.92 372.726 1406.28 357.409 1425.65 341.837C1430.37 338.015 1435.16 334.25 1440.06 330.626V330.484C1443.65 327.795 1447.33 325.162 1451.1 322.67C1499.29 290.621 1566.89 285.553 1618.62 312.733C1640.59 324.284 1659.08 340.45 1678.56 355.597C1699.17 371.621 1721.62 384.192 1747.5 389.203C1778.95 395.29 1813.6 393.903 1843.61 382.012C1866.94 372.754 1886.31 357.437 1905.67 341.866C1910.4 338.043 1915.19 334.278 1920.08 330.654V316.526C1906.16 326.294 1893.27 337.449 1879.68 347.783C1858.59 363.807 1835.49 376.349 1809.19 381.134L1809.13 381.078Z" fill="#3E668C" fill-opacity="0.4"/>
<path d="M1823.15 290.367C1802.05 306.391 1778.95 318.933 1752.65 323.718C1721.85 329.324 1687.9 328.05 1658.45 316.753C1634.76 307.665 1614.66 292.518 1595.06 276.692C1575.76 261.092 1556.11 246.059 1532.24 238.131C1503.14 228.477 1470.07 226.948 1440 233.658V233.46C1426.78 236.461 1413.95 241.161 1401.98 247.587C1380.43 259.167 1362.48 275.645 1343.15 290.338C1322.05 306.363 1298.95 318.905 1272.65 323.69C1241.85 329.296 1207.9 328.022 1178.45 316.725C1154.76 307.637 1134.66 292.49 1115.06 276.664C1095.76 261.064 1076.11 246.03 1052.24 238.103C1023.14 228.449 990.067 226.92 960 233.63V244.417C1000.23 232.922 1045.19 235.895 1082.08 255.26C1104.05 266.811 1122.54 282.977 1142.02 298.124C1162.63 314.149 1185.08 326.719 1210.96 331.73C1242.41 337.818 1277.07 336.43 1307.08 324.539C1330.4 315.281 1349.77 299.993 1369.14 284.393C1388.73 268.623 1409.14 253.703 1433.35 245.974C1435.56 245.266 1437.76 244.615 1440 244.02V244.417C1480.23 232.922 1525.19 235.895 1562.08 255.26C1584.05 266.811 1602.54 282.977 1622.02 298.124C1642.63 314.149 1665.08 326.719 1690.96 331.73C1722.41 337.818 1757.07 336.43 1787.08 324.539C1810.4 315.281 1829.77 299.993 1849.14 284.393C1868.73 268.623 1889.14 253.703 1913.35 245.974C1915.56 245.266 1917.76 244.615 1920 244.02V233.432C1906.78 236.433 1893.95 241.132 1881.98 247.559C1860.43 259.139 1842.48 275.616 1823.15 290.31V290.367Z" fill="#3E668C" fill-opacity="0.4"/>
<path d="M1769.04 132.925C1747.5 144.504 1729.55 160.982 1710.21 175.676C1689.12 191.7 1666.01 204.242 1639.71 209.027C1608.91 214.633 1574.96 213.359 1545.52 202.062C1521.82 192.974 1501.72 177.827 1482.13 162.001C1468.68 151.158 1455.09 140.569 1440.03 132.472V132.698C1393.65 109.228 1335.1 108.152 1289.07 132.925C1267.52 144.504 1249.57 160.982 1230.24 175.676C1209.14 191.7 1186.04 204.242 1159.74 209.027C1128.94 214.633 1094.99 213.359 1065.55 202.062C1041.85 192.974 1021.75 177.827 1002.16 162.001C988.708 151.158 975.119 140.569 960.057 132.472V136.237C963.143 137.596 966.2 139.068 969.201 140.626C991.171 152.177 1009.66 168.343 1029.14 183.49C1049.75 199.514 1072.2 212.085 1098.08 217.096C1129.53 223.211 1164.19 221.796 1194.2 209.905C1217.53 200.647 1236.89 185.358 1256.26 169.758C1275.85 153.989 1296.26 139.068 1320.47 131.339C1350.51 121.742 1384.88 120.637 1415.51 128.112C1424.03 130.178 1432.19 133.038 1440.06 136.492V136.237C1443.14 137.596 1446.2 139.068 1449.2 140.626C1471.17 152.177 1489.66 168.343 1509.14 183.49C1529.75 199.514 1552.2 212.085 1578.08 217.096C1609.53 223.211 1644.19 221.796 1674.2 209.905C1697.53 200.647 1716.89 185.358 1736.26 169.758C1755.85 153.989 1776.23 139.068 1800.47 131.339C1830.51 121.742 1864.88 120.637 1895.51 128.112C1904.03 130.178 1912.19 133.038 1920.06 136.492V132.727C1873.68 109.256 1815.13 108.18 1769.1 132.953L1769.04 132.925Z" fill="#3E668C" fill-opacity="0.4"/>
<path d="M1794.89 261.687C1773.8 277.712 1750.69 290.254 1724.39 295.038C1693.59 300.644 1659.64 299.37 1630.2 288.074C1606.47 278.986 1586.4 263.839 1566.81 248.012C1547.5 232.413 1527.85 217.379 1503.98 209.452C1483.8 202.742 1461.69 199.967 1440 201.128V200.93C1416.9 202.09 1394.08 207.979 1373.75 218.936C1352.2 230.516 1334.26 246.993 1314.92 261.687C1293.83 277.712 1270.72 290.254 1244.42 295.038C1213.62 300.644 1179.67 299.37 1150.23 288.074C1126.53 278.986 1106.43 263.839 1086.84 248.012C1067.53 232.413 1047.88 217.379 1024.01 209.452C1003.83 202.742 981.715 199.967 960.028 201.128V210.188C992.191 206.507 1025.43 211.688 1053.85 226.637C1075.82 238.188 1094.31 254.354 1113.79 269.501C1134.4 285.526 1156.85 298.096 1182.73 303.107C1214.18 309.194 1248.84 307.807 1278.85 295.916C1302.18 286.658 1321.54 271.37 1340.91 255.77C1360.5 240 1380.91 225.08 1405.12 217.351C1416.3 213.783 1428.05 211.405 1440 210.188C1472.16 206.507 1505.4 211.688 1533.83 226.637C1555.8 238.188 1574.28 254.354 1593.76 269.501C1614.37 285.526 1636.82 298.096 1662.7 303.107C1694.16 309.194 1728.81 307.807 1758.82 295.916C1782.15 286.658 1801.51 271.37 1820.88 255.77C1840.44 240 1860.86 225.08 1885.09 217.351C1896.25 213.783 1908.02 211.405 1919.97 210.188V200.93C1896.87 202.09 1874.05 207.979 1853.72 218.936C1832.18 230.516 1814.23 246.993 1794.89 261.687Z" fill="#3E668C" fill-opacity="0.4"/>
<path d="M1851.37 319.047C1830.28 335.072 1807.18 347.614 1780.88 352.399C1750.07 358.005 1716.13 356.731 1686.68 345.434C1662.96 336.346 1642.88 321.199 1623.29 305.373C1603.98 289.773 1584.33 274.739 1560.47 266.812C1529.83 256.648 1494.78 255.487 1463.53 263.471C1455.35 265.566 1447.53 268.369 1440 271.767V271.483C1436.69 272.956 1433.4 274.569 1430.2 276.268C1408.66 287.848 1390.71 304.325 1371.37 319.019C1350.28 335.044 1327.18 347.586 1300.88 352.371C1270.07 357.976 1236.13 356.702 1206.68 345.406C1182.96 336.318 1162.88 321.171 1143.26 305.344C1123.95 289.745 1104.31 274.711 1080.44 266.784C1049.81 256.62 1014.78 255.459 983.499 263.443C975.317 265.538 967.503 268.341 959.972 271.738V284.026C1006.18 261.15 1064.47 259.904 1110.28 283.997C1132.25 295.549 1150.74 311.715 1170.22 326.861C1190.83 342.886 1213.28 355.457 1239.16 360.468C1270.61 366.555 1305.26 365.167 1335.27 353.276C1358.6 344.019 1377.97 328.73 1397.33 313.13C1410.84 302.258 1424.71 291.811 1439.97 283.827V284.054C1486.18 261.178 1544.47 259.932 1590.28 284.026C1612.25 295.577 1630.74 311.743 1650.22 326.89C1670.83 342.914 1693.28 355.485 1719.16 360.496C1750.61 366.583 1785.26 365.196 1815.27 353.305C1838.6 344.047 1857.97 328.758 1877.33 313.159C1890.84 302.287 1904.71 291.84 1919.97 283.856V271.54C1916.66 273.012 1913.38 274.626 1910.18 276.325C1888.63 287.904 1870.68 304.382 1851.34 319.076L1851.37 319.047Z" fill="#3E668C" fill-opacity="0.4"/>
<path d="M1825.49 190.286C1803.95 201.866 1786 218.343 1766.66 233.037C1745.6 249.062 1722.47 261.604 1696.17 266.389C1665.36 271.994 1631.42 270.72 1601.97 259.424C1578.28 250.336 1558.17 235.189 1538.58 219.362C1519.27 203.763 1499.62 188.729 1475.76 180.802C1464.32 177.008 1452.26 174.46 1440 173.186C1407.61 169.477 1374.15 174.856 1345.49 190.286C1323.95 201.866 1306 218.343 1286.66 233.037C1265.6 249.062 1242.47 261.604 1216.17 266.389C1185.36 271.994 1151.42 270.72 1121.97 259.424C1098.28 250.336 1078.17 235.189 1058.58 219.362C1039.27 203.763 1019.62 188.729 995.758 180.802C984.32 177.008 972.259 174.46 960 173.186V180.603C982.904 181.708 1005.47 187.398 1025.6 197.987C1047.57 209.538 1066.06 225.704 1085.54 240.851C1106.15 256.876 1128.6 269.446 1154.47 274.457C1185.93 280.573 1220.58 279.157 1250.59 267.266C1273.92 258.008 1293.29 242.72 1312.65 227.12C1332.24 211.35 1352.66 196.43 1376.86 188.701C1396.8 182.359 1418.6 179.726 1440 180.858V180.603C1462.9 181.708 1485.44 187.398 1505.6 197.987C1527.57 209.538 1546.06 225.704 1565.54 240.851C1586.15 256.876 1608.6 269.446 1634.47 274.457C1665.93 280.573 1700.58 279.157 1730.59 267.266C1753.92 258.008 1773.29 242.72 1792.65 227.12C1812.24 211.35 1832.66 196.43 1856.86 188.701C1876.8 182.359 1898.6 179.726 1920 180.858V173.242C1887.61 169.477 1854.15 174.884 1825.49 190.286Z" fill="#3E668C" fill-opacity="0.4"/>
<path d="M1797.27 161.606C1775.72 173.186 1757.77 189.663 1738.44 204.357C1717.34 220.382 1694.24 232.924 1667.94 237.709C1637.14 243.315 1603.19 242.041 1573.75 230.744C1550.02 221.656 1529.95 206.509 1510.36 190.683C1491.05 175.083 1471.4 160.049 1447.53 152.122C1445.04 151.301 1442.55 150.536 1440 149.829V150.253C1399.57 138.476 1354.36 141.647 1317.27 161.606C1295.72 173.186 1277.77 189.663 1258.44 204.357C1237.34 220.382 1214.24 232.924 1187.94 237.709C1157.14 243.315 1123.19 242.041 1093.75 230.744C1070.02 221.656 1049.95 206.509 1030.36 190.683C1011.05 175.083 991.398 160.049 967.531 152.122C965.04 151.301 962.548 150.536 960 149.829V155.689C972.995 158.605 985.594 163.107 997.372 169.279C1019.34 180.83 1037.83 196.996 1057.31 212.143C1077.92 228.168 1100.37 240.738 1126.25 245.749C1157.7 251.836 1192.36 250.449 1222.37 238.558C1245.7 229.3 1265.06 214.012 1284.43 198.412C1304.02 182.642 1324.43 167.722 1348.64 159.993C1377.49 150.791 1410.3 149.404 1440 155.916V155.689C1453 158.605 1465.59 163.107 1477.37 169.279C1499.34 180.83 1517.83 196.996 1537.31 212.143C1557.92 228.168 1580.37 240.738 1606.25 245.749C1637.7 251.836 1672.36 250.449 1702.37 238.558C1725.7 229.3 1745.06 214.012 1764.43 198.412C1784.02 182.642 1804.43 167.722 1828.67 159.993C1857.52 150.791 1890.33 149.404 1920.03 155.916V150.253C1879.6 138.476 1834.38 141.647 1797.3 161.606H1797.27Z" fill="#3E668C" fill-opacity="0.4"/>
</g>
<defs>
<clipPath id="clip0_307_175">
<rect width="1920" height="478.726" fill="white"/>
</clipPath>
</defs>
</svg>
